<mxfile host="app.diagrams.net" modified="2024-02-20T19:47:17.225Z" agent="Mozilla/5.0 (X11; CrOS x86_64 14541.0.0) AppleWebKit/537.36 (KHTML, like Gecko) Chrome/120.0.0.0 Safari/537.36" etag="slYSM_KvFIa-OCQdGx5A" version="23.1.5" type="github">
  <diagram id="vxHeRjgXNTdn3h5mmswN" name="Task 1-distributed_web_infrastructure">
    <mxGraphModel dx="3354" dy="1868" grid="0" gridSize="10" guides="1" tooltips="1" connect="1" arrows="1" fold="1" page="0" pageScale="1" pageWidth="850" pageHeight="1100" math="0" shadow="0">
      <root>
        <mxCell id="0" />
        <mxCell id="1" parent="0" />
        <mxCell id="0QWitckHc7rh2wHEKvZY-165" value="" style="rounded=1;whiteSpace=wrap;html=1;labelBackgroundColor=none;fillColor=#B2C9AB;strokeColor=#788AA3;fontColor=#46495D;" parent="1" vertex="1">
          <mxGeometry x="-820.5" y="-113" width="407" height="68" as="geometry" />
        </mxCell>
        <mxCell id="0QWitckHc7rh2wHEKvZY-9" style="edgeStyle=none;curved=1;rounded=0;orthogonalLoop=1;jettySize=auto;html=1;exitX=0;exitY=0;exitDx=0;exitDy=0;fontSize=12;startSize=8;endSize=8;labelBackgroundColor=none;strokeColor=#788AA3;fontColor=default;" parent="1" edge="1">
          <mxGeometry relative="1" as="geometry">
            <mxPoint x="223.99999999999977" y="218" as="sourcePoint" />
            <mxPoint x="223.99999999999977" y="218" as="targetPoint" />
          </mxGeometry>
        </mxCell>
        <mxCell id="0QWitckHc7rh2wHEKvZY-89" style="edgeStyle=none;curved=1;rounded=0;orthogonalLoop=1;jettySize=auto;html=1;exitX=0;exitY=0;exitDx=0;exitDy=0;fontSize=12;startSize=8;endSize=8;labelBackgroundColor=none;strokeColor=#788AA3;fontColor=default;" parent="1" edge="1">
          <mxGeometry relative="1" as="geometry">
            <mxPoint x="500.9999999999998" y="748" as="sourcePoint" />
            <mxPoint x="500.9999999999998" y="748" as="targetPoint" />
          </mxGeometry>
        </mxCell>
        <mxCell id="0QWitckHc7rh2wHEKvZY-98" style="edgeStyle=none;curved=1;rounded=0;orthogonalLoop=1;jettySize=auto;html=1;exitX=0.25;exitY=1;exitDx=0;exitDy=0;fontSize=12;startSize=8;endSize=8;labelBackgroundColor=none;strokeColor=#788AA3;fontColor=default;" parent="1" edge="1">
          <mxGeometry relative="1" as="geometry">
            <mxPoint x="487.75000000000045" y="-265" as="sourcePoint" />
            <mxPoint x="487.75000000000045" y="-265" as="targetPoint" />
          </mxGeometry>
        </mxCell>
        <mxCell id="0QWitckHc7rh2wHEKvZY-113" style="edgeStyle=none;curved=1;rounded=0;orthogonalLoop=1;jettySize=auto;html=1;exitX=0;exitY=0;exitDx=0;exitDy=0;fontSize=12;startSize=8;endSize=8;labelBackgroundColor=none;strokeColor=#788AA3;fontColor=default;" parent="1" edge="1">
          <mxGeometry relative="1" as="geometry">
            <mxPoint x="223.99999999999977" y="218" as="sourcePoint" />
            <mxPoint x="223.99999999999977" y="218" as="targetPoint" />
          </mxGeometry>
        </mxCell>
        <mxCell id="0QWitckHc7rh2wHEKvZY-115" style="edgeStyle=none;curved=1;rounded=0;orthogonalLoop=1;jettySize=auto;html=1;exitX=0;exitY=0;exitDx=0;exitDy=0;fontSize=12;startSize=8;endSize=8;labelBackgroundColor=none;strokeColor=#788AA3;fontColor=default;" parent="1" edge="1">
          <mxGeometry relative="1" as="geometry">
            <mxPoint x="500.9999999999998" y="748" as="sourcePoint" />
            <mxPoint x="500.9999999999998" y="748" as="targetPoint" />
          </mxGeometry>
        </mxCell>
        <mxCell id="0QWitckHc7rh2wHEKvZY-117" style="edgeStyle=none;curved=1;rounded=0;orthogonalLoop=1;jettySize=auto;html=1;exitX=0.25;exitY=1;exitDx=0;exitDy=0;fontSize=12;startSize=8;endSize=8;labelBackgroundColor=none;strokeColor=#788AA3;fontColor=default;" parent="1" edge="1">
          <mxGeometry relative="1" as="geometry">
            <mxPoint x="487.75000000000045" y="-265" as="sourcePoint" />
            <mxPoint x="487.75000000000045" y="-265" as="targetPoint" />
          </mxGeometry>
        </mxCell>
        <mxCell id="0QWitckHc7rh2wHEKvZY-118" value="" style="swimlane;whiteSpace=wrap;html=1;startSize=47;labelBackgroundColor=none;fillColor=#B2C9AB;strokeColor=#788AA3;fontColor=#46495D;" parent="1" vertex="1">
          <mxGeometry x="-1183.5" y="227.75" width="718" height="348.5" as="geometry" />
        </mxCell>
        <mxCell id="0QWitckHc7rh2wHEKvZY-119" value="" style="ellipse;whiteSpace=wrap;html=1;aspect=fixed;labelBackgroundColor=none;fillColor=#B2C9AB;strokeColor=#788AA3;fontColor=#46495D;" parent="0QWitckHc7rh2wHEKvZY-118" vertex="1">
          <mxGeometry x="14" y="69" width="162" height="162" as="geometry" />
        </mxCell>
        <mxCell id="NHQvvPsqq3CXF0zZrcX6-12" value="" style="edgeStyle=orthogonalEdgeStyle;rounded=0;orthogonalLoop=1;jettySize=auto;html=1;labelBackgroundColor=none;strokeColor=#788AA3;fontColor=default;" parent="0QWitckHc7rh2wHEKvZY-118" source="0QWitckHc7rh2wHEKvZY-120" target="0QWitckHc7rh2wHEKvZY-128" edge="1">
          <mxGeometry relative="1" as="geometry" />
        </mxCell>
        <mxCell id="0QWitckHc7rh2wHEKvZY-120" value="" style="ellipse;whiteSpace=wrap;html=1;labelBackgroundColor=none;fillColor=#B2C9AB;strokeColor=#788AA3;fontColor=#46495D;" parent="0QWitckHc7rh2wHEKvZY-118" vertex="1">
          <mxGeometry x="254" y="80" width="188" height="142" as="geometry" />
        </mxCell>
        <mxCell id="0QWitckHc7rh2wHEKvZY-121" value="" style="shape=datastore;whiteSpace=wrap;html=1;labelBackgroundColor=none;fillColor=#B2C9AB;strokeColor=#788AA3;fontColor=#46495D;" parent="0QWitckHc7rh2wHEKvZY-118" vertex="1">
          <mxGeometry x="554" y="55" width="138" height="188" as="geometry" />
        </mxCell>
        <mxCell id="0QWitckHc7rh2wHEKvZY-122" value="" style="shape=flexArrow;endArrow=classic;startArrow=classic;html=1;rounded=0;fontSize=12;startSize=8;endSize=8;entryX=0;entryY=0.5;entryDx=0;entryDy=0;exitX=1;exitY=0.5;exitDx=0;exitDy=0;labelBackgroundColor=none;strokeColor=#788AA3;fontColor=default;" parent="0QWitckHc7rh2wHEKvZY-118" source="0QWitckHc7rh2wHEKvZY-120" target="0QWitckHc7rh2wHEKvZY-121" edge="1">
          <mxGeometry width="100" height="100" relative="1" as="geometry">
            <mxPoint x="-52" y="59" as="sourcePoint" />
            <mxPoint x="48" y="-41" as="targetPoint" />
          </mxGeometry>
        </mxCell>
        <mxCell id="0QWitckHc7rh2wHEKvZY-123" value="" style="shape=flexArrow;endArrow=classic;html=1;rounded=0;fontSize=12;startSize=8;endSize=8;entryX=1;entryY=0.5;entryDx=0;entryDy=0;exitX=0;exitY=0.5;exitDx=0;exitDy=0;labelBackgroundColor=none;strokeColor=#788AA3;fontColor=default;" parent="0QWitckHc7rh2wHEKvZY-118" source="0QWitckHc7rh2wHEKvZY-120" target="0QWitckHc7rh2wHEKvZY-119" edge="1">
          <mxGeometry width="50" height="50" relative="1" as="geometry">
            <mxPoint x="-27" y="34" as="sourcePoint" />
            <mxPoint x="23" y="-16" as="targetPoint" />
          </mxGeometry>
        </mxCell>
        <mxCell id="0QWitckHc7rh2wHEKvZY-124" value="App Server" style="text;strokeColor=none;fillColor=none;html=1;fontSize=24;fontStyle=1;verticalAlign=middle;align=center;labelBackgroundColor=none;fontColor=#46495D;" parent="0QWitckHc7rh2wHEKvZY-118" vertex="1">
          <mxGeometry x="298" y="130" width="100" height="40" as="geometry" />
        </mxCell>
        <mxCell id="0QWitckHc7rh2wHEKvZY-125" value="Database&lt;br&gt;MySQL" style="text;strokeColor=none;fillColor=none;html=1;fontSize=24;fontStyle=1;verticalAlign=middle;align=center;labelBackgroundColor=none;fontColor=#46495D;" parent="0QWitckHc7rh2wHEKvZY-118" vertex="1">
          <mxGeometry x="573" y="143" width="100" height="40" as="geometry" />
        </mxCell>
        <mxCell id="0QWitckHc7rh2wHEKvZY-126" value="Nginx&lt;br&gt;(Web Server)" style="text;strokeColor=none;fillColor=none;html=1;fontSize=24;fontStyle=1;verticalAlign=middle;align=center;labelBackgroundColor=none;fontColor=#46495D;" parent="0QWitckHc7rh2wHEKvZY-118" vertex="1">
          <mxGeometry x="45" y="129" width="100" height="40" as="geometry" />
        </mxCell>
        <mxCell id="0QWitckHc7rh2wHEKvZY-127" value="Server 1" style="text;strokeColor=none;fillColor=none;html=1;fontSize=24;fontStyle=1;verticalAlign=middle;align=center;labelBackgroundColor=none;fontColor=#46495D;" parent="0QWitckHc7rh2wHEKvZY-118" vertex="1">
          <mxGeometry x="281" y="3" width="100" height="40" as="geometry" />
        </mxCell>
        <mxCell id="0QWitckHc7rh2wHEKvZY-128" value="Codebase&amp;nbsp;&lt;br&gt;(dynamic)" style="text;strokeColor=none;fillColor=none;html=1;fontSize=24;fontStyle=1;verticalAlign=middle;align=center;labelBackgroundColor=none;fontColor=#46495D;" parent="0QWitckHc7rh2wHEKvZY-118" vertex="1">
          <mxGeometry x="298" y="294" width="100" height="38" as="geometry" />
        </mxCell>
        <mxCell id="0QWitckHc7rh2wHEKvZY-129" value="Codebase&amp;nbsp;&lt;br&gt;(static)" style="text;strokeColor=none;fillColor=none;html=1;fontSize=24;fontStyle=1;verticalAlign=middle;align=center;labelBackgroundColor=none;fontColor=#46495D;" parent="0QWitckHc7rh2wHEKvZY-118" vertex="1">
          <mxGeometry x="45" y="294" width="100" height="38" as="geometry" />
        </mxCell>
        <mxCell id="0QWitckHc7rh2wHEKvZY-130" style="edgeStyle=none;curved=1;rounded=0;orthogonalLoop=1;jettySize=auto;html=1;exitX=0.5;exitY=1;exitDx=0;exitDy=0;fontSize=12;startSize=8;endSize=8;labelBackgroundColor=none;strokeColor=#788AA3;fontColor=default;" parent="0QWitckHc7rh2wHEKvZY-118" source="0QWitckHc7rh2wHEKvZY-129" target="0QWitckHc7rh2wHEKvZY-129" edge="1">
          <mxGeometry relative="1" as="geometry" />
        </mxCell>
        <mxCell id="0QWitckHc7rh2wHEKvZY-131" value="" style="endArrow=classic;html=1;rounded=0;fontSize=12;startSize=8;endSize=8;exitX=0.5;exitY=1;exitDx=0;exitDy=0;labelBackgroundColor=none;strokeColor=#788AA3;fontColor=default;" parent="0QWitckHc7rh2wHEKvZY-118" edge="1">
          <mxGeometry width="50" height="50" relative="1" as="geometry">
            <mxPoint x="94.17000000000002" y="231" as="sourcePoint" />
            <mxPoint x="94.17000000000002" y="293" as="targetPoint" />
          </mxGeometry>
        </mxCell>
        <mxCell id="0QWitckHc7rh2wHEKvZY-132" style="edgeStyle=none;curved=1;rounded=0;orthogonalLoop=1;jettySize=auto;html=1;exitX=0;exitY=0;exitDx=0;exitDy=0;fontSize=12;startSize=8;endSize=8;labelBackgroundColor=none;strokeColor=#788AA3;fontColor=default;" parent="1" source="0QWitckHc7rh2wHEKvZY-99" edge="1">
          <mxGeometry relative="1" as="geometry">
            <mxPoint x="233.99999999999977" y="228" as="sourcePoint" />
            <mxPoint x="233.99999999999977" y="228" as="targetPoint" />
          </mxGeometry>
        </mxCell>
        <mxCell id="0QWitckHc7rh2wHEKvZY-133" value="" style="image;points=[];aspect=fixed;html=1;align=center;shadow=0;dashed=0;image=img/lib/allied_telesis/computer_and_terminals/Personal_Computer_Wireless.svg;labelBackgroundColor=none;fillColor=#B2C9AB;strokeColor=#788AA3;fontColor=#46495D;" parent="1" vertex="1">
          <mxGeometry x="-270" y="-570" width="249.9" height="254.66" as="geometry" />
        </mxCell>
        <mxCell id="0QWitckHc7rh2wHEKvZY-134" style="edgeStyle=none;curved=1;rounded=0;orthogonalLoop=1;jettySize=auto;html=1;exitX=0;exitY=0;exitDx=0;exitDy=0;fontSize=12;startSize=8;endSize=8;labelBackgroundColor=none;strokeColor=#788AA3;fontColor=default;" parent="1" edge="1">
          <mxGeometry relative="1" as="geometry">
            <mxPoint x="510.9999999999998" y="758" as="sourcePoint" />
            <mxPoint x="510.9999999999998" y="758" as="targetPoint" />
          </mxGeometry>
        </mxCell>
        <mxCell id="0QWitckHc7rh2wHEKvZY-136" style="edgeStyle=none;curved=1;rounded=0;orthogonalLoop=1;jettySize=auto;html=1;exitX=0.25;exitY=1;exitDx=0;exitDy=0;fontSize=12;startSize=8;endSize=8;labelBackgroundColor=none;strokeColor=#788AA3;fontColor=default;" parent="1" edge="1">
          <mxGeometry relative="1" as="geometry">
            <mxPoint x="497.75000000000045" y="-255" as="sourcePoint" />
            <mxPoint x="497.75000000000045" y="-255" as="targetPoint" />
          </mxGeometry>
        </mxCell>
        <mxCell id="0QWitckHc7rh2wHEKvZY-138" value="" style="swimlane;whiteSpace=wrap;html=1;startSize=47;labelBackgroundColor=none;fillColor=#B2C9AB;strokeColor=#788AA3;fontColor=#46495D;" parent="1" vertex="1">
          <mxGeometry x="-535" y="619" width="718" height="347" as="geometry" />
        </mxCell>
        <mxCell id="0QWitckHc7rh2wHEKvZY-139" value="" style="ellipse;whiteSpace=wrap;html=1;aspect=fixed;labelBackgroundColor=none;fillColor=#B2C9AB;strokeColor=#788AA3;fontColor=#46495D;" parent="0QWitckHc7rh2wHEKvZY-138" vertex="1">
          <mxGeometry x="14" y="69" width="162" height="162" as="geometry" />
        </mxCell>
        <mxCell id="NHQvvPsqq3CXF0zZrcX6-10" value="" style="edgeStyle=orthogonalEdgeStyle;rounded=0;orthogonalLoop=1;jettySize=auto;html=1;labelBackgroundColor=none;strokeColor=#788AA3;fontColor=default;" parent="0QWitckHc7rh2wHEKvZY-138" source="0QWitckHc7rh2wHEKvZY-140" target="0QWitckHc7rh2wHEKvZY-148" edge="1">
          <mxGeometry relative="1" as="geometry" />
        </mxCell>
        <mxCell id="0QWitckHc7rh2wHEKvZY-140" value="" style="ellipse;whiteSpace=wrap;html=1;labelBackgroundColor=none;fillColor=#B2C9AB;strokeColor=#788AA3;fontColor=#46495D;" parent="0QWitckHc7rh2wHEKvZY-138" vertex="1">
          <mxGeometry x="254" y="80" width="188" height="142" as="geometry" />
        </mxCell>
        <mxCell id="0QWitckHc7rh2wHEKvZY-141" value="" style="shape=datastore;whiteSpace=wrap;html=1;labelBackgroundColor=none;fillColor=#B2C9AB;strokeColor=#788AA3;fontColor=#46495D;" parent="0QWitckHc7rh2wHEKvZY-138" vertex="1">
          <mxGeometry x="554" y="55" width="138" height="188" as="geometry" />
        </mxCell>
        <mxCell id="0QWitckHc7rh2wHEKvZY-142" value="" style="shape=flexArrow;endArrow=classic;startArrow=classic;html=1;rounded=0;fontSize=12;startSize=8;endSize=8;entryX=0;entryY=0.5;entryDx=0;entryDy=0;exitX=1;exitY=0.5;exitDx=0;exitDy=0;labelBackgroundColor=none;strokeColor=#788AA3;fontColor=default;" parent="0QWitckHc7rh2wHEKvZY-138" source="0QWitckHc7rh2wHEKvZY-140" target="0QWitckHc7rh2wHEKvZY-141" edge="1">
          <mxGeometry width="100" height="100" relative="1" as="geometry">
            <mxPoint x="-52" y="59" as="sourcePoint" />
            <mxPoint x="48" y="-41" as="targetPoint" />
          </mxGeometry>
        </mxCell>
        <mxCell id="0QWitckHc7rh2wHEKvZY-143" value="" style="shape=flexArrow;endArrow=classic;html=1;rounded=0;fontSize=12;startSize=8;endSize=8;entryX=1;entryY=0.5;entryDx=0;entryDy=0;exitX=0;exitY=0.5;exitDx=0;exitDy=0;labelBackgroundColor=none;strokeColor=#788AA3;fontColor=default;" parent="0QWitckHc7rh2wHEKvZY-138" source="0QWitckHc7rh2wHEKvZY-140" target="0QWitckHc7rh2wHEKvZY-139" edge="1">
          <mxGeometry width="50" height="50" relative="1" as="geometry">
            <mxPoint x="-27" y="34" as="sourcePoint" />
            <mxPoint x="23" y="-16" as="targetPoint" />
          </mxGeometry>
        </mxCell>
        <mxCell id="0QWitckHc7rh2wHEKvZY-144" value="App Server" style="text;strokeColor=none;fillColor=none;html=1;fontSize=24;fontStyle=1;verticalAlign=middle;align=center;labelBackgroundColor=none;fontColor=#46495D;" parent="0QWitckHc7rh2wHEKvZY-138" vertex="1">
          <mxGeometry x="298" y="130" width="100" height="40" as="geometry" />
        </mxCell>
        <mxCell id="0QWitckHc7rh2wHEKvZY-145" value="Database&lt;br&gt;MySQL" style="text;strokeColor=none;fillColor=none;html=1;fontSize=24;fontStyle=1;verticalAlign=middle;align=center;labelBackgroundColor=none;fontColor=#46495D;" parent="0QWitckHc7rh2wHEKvZY-138" vertex="1">
          <mxGeometry x="573" y="143" width="100" height="40" as="geometry" />
        </mxCell>
        <mxCell id="0QWitckHc7rh2wHEKvZY-146" value="Nginx&lt;br&gt;(Web Server)" style="text;strokeColor=none;fillColor=none;html=1;fontSize=24;fontStyle=1;verticalAlign=middle;align=center;labelBackgroundColor=none;fontColor=#46495D;" parent="0QWitckHc7rh2wHEKvZY-138" vertex="1">
          <mxGeometry x="45" y="129" width="100" height="40" as="geometry" />
        </mxCell>
        <mxCell id="0QWitckHc7rh2wHEKvZY-147" value="Server 1" style="text;strokeColor=none;fillColor=none;html=1;fontSize=24;fontStyle=1;verticalAlign=middle;align=center;labelBackgroundColor=none;fontColor=#46495D;" parent="0QWitckHc7rh2wHEKvZY-138" vertex="1">
          <mxGeometry x="294" y="7" width="100" height="40" as="geometry" />
        </mxCell>
        <mxCell id="0QWitckHc7rh2wHEKvZY-148" value="Codebase&amp;nbsp;&lt;br&gt;(dynamic)" style="text;strokeColor=none;fillColor=none;html=1;fontSize=24;fontStyle=1;verticalAlign=middle;align=center;labelBackgroundColor=none;fontColor=#46495D;" parent="0QWitckHc7rh2wHEKvZY-138" vertex="1">
          <mxGeometry x="298" y="294" width="100" height="38" as="geometry" />
        </mxCell>
        <mxCell id="0QWitckHc7rh2wHEKvZY-149" value="Codebase&amp;nbsp;&lt;br&gt;(static)" style="text;strokeColor=none;fillColor=none;html=1;fontSize=24;fontStyle=1;verticalAlign=middle;align=center;labelBackgroundColor=none;fontColor=#46495D;" parent="0QWitckHc7rh2wHEKvZY-138" vertex="1">
          <mxGeometry x="45" y="294" width="100" height="38" as="geometry" />
        </mxCell>
        <mxCell id="0QWitckHc7rh2wHEKvZY-150" style="edgeStyle=none;curved=1;rounded=0;orthogonalLoop=1;jettySize=auto;html=1;exitX=0.5;exitY=1;exitDx=0;exitDy=0;fontSize=12;startSize=8;endSize=8;labelBackgroundColor=none;strokeColor=#788AA3;fontColor=default;" parent="0QWitckHc7rh2wHEKvZY-138" source="0QWitckHc7rh2wHEKvZY-149" target="0QWitckHc7rh2wHEKvZY-149" edge="1">
          <mxGeometry relative="1" as="geometry" />
        </mxCell>
        <mxCell id="0QWitckHc7rh2wHEKvZY-151" value="" style="endArrow=classic;html=1;rounded=0;fontSize=12;startSize=8;endSize=8;exitX=0.5;exitY=1;exitDx=0;exitDy=0;labelBackgroundColor=none;strokeColor=#788AA3;fontColor=default;" parent="0QWitckHc7rh2wHEKvZY-138" edge="1">
          <mxGeometry width="50" height="50" relative="1" as="geometry">
            <mxPoint x="94.17000000000002" y="231" as="sourcePoint" />
            <mxPoint x="94.17000000000002" y="293" as="targetPoint" />
          </mxGeometry>
        </mxCell>
        <mxCell id="0QWitckHc7rh2wHEKvZY-152" value="" style="rounded=1;whiteSpace=wrap;html=1;labelBackgroundColor=none;fillColor=#B2C9AB;strokeColor=#788AA3;fontColor=#46495D;" parent="1" vertex="1">
          <mxGeometry x="-333.5" y="315" width="281" height="174" as="geometry" />
        </mxCell>
        <mxCell id="0QWitckHc7rh2wHEKvZY-153" value="Load-balancer&lt;br&gt;(HAproxy)" style="text;strokeColor=none;fillColor=none;html=1;fontSize=24;fontStyle=1;verticalAlign=middle;align=center;labelBackgroundColor=none;fontColor=#46495D;" parent="1" vertex="1">
          <mxGeometry x="-306.5" y="349.5" width="227" height="96" as="geometry" />
        </mxCell>
        <mxCell id="0QWitckHc7rh2wHEKvZY-154" value="" style="shape=flexArrow;endArrow=classic;html=1;rounded=0;fontSize=12;startSize=8;endSize=8;exitX=0.5;exitY=0;exitDx=0;exitDy=0;entryX=0.903;entryY=0.991;entryDx=0;entryDy=0;entryPerimeter=0;labelBackgroundColor=none;strokeColor=#788AA3;fontColor=default;" parent="1" source="0QWitckHc7rh2wHEKvZY-152" target="0QWitckHc7rh2wHEKvZY-133" edge="1">
          <mxGeometry width="50" height="50" relative="1" as="geometry">
            <mxPoint x="-280" y="203" as="sourcePoint" />
            <mxPoint x="-230" y="153" as="targetPoint" />
          </mxGeometry>
        </mxCell>
        <mxCell id="0QWitckHc7rh2wHEKvZY-155" value="" style="shape=flexArrow;endArrow=classic;html=1;rounded=0;fontSize=12;startSize=8;endSize=8;entryX=0;entryY=0;entryDx=0;entryDy=0;exitX=0.75;exitY=1;exitDx=0;exitDy=0;labelBackgroundColor=none;strokeColor=#788AA3;fontColor=default;" parent="1" source="0QWitckHc7rh2wHEKvZY-165" target="0QWitckHc7rh2wHEKvZY-152" edge="1">
          <mxGeometry width="50" height="50" relative="1" as="geometry">
            <mxPoint x="-650" y="-275" as="sourcePoint" />
            <mxPoint x="-230" y="153" as="targetPoint" />
          </mxGeometry>
        </mxCell>
        <mxCell id="0QWitckHc7rh2wHEKvZY-157" value="HTTPS Requests&lt;br&gt;IP 8.8.8.8" style="text;strokeColor=none;fillColor=none;html=1;fontSize=24;fontStyle=1;verticalAlign=middle;align=center;rotation=60;labelBackgroundColor=none;fontColor=#46495D;" parent="1" vertex="1">
          <mxGeometry x="-463" y="99" width="166" height="40" as="geometry" />
        </mxCell>
        <mxCell id="0QWitckHc7rh2wHEKvZY-158" value="HTTPS response" style="text;strokeColor=none;fillColor=none;html=1;fontSize=24;fontStyle=1;verticalAlign=middle;align=center;rotation=105;labelBackgroundColor=none;fontColor=#46495D;" parent="1" vertex="1">
          <mxGeometry x="-116" y="-23" width="100" height="40" as="geometry" />
        </mxCell>
        <mxCell id="0QWitckHc7rh2wHEKvZY-159" style="edgeStyle=none;curved=1;rounded=0;orthogonalLoop=1;jettySize=auto;html=1;exitX=0.75;exitY=1;exitDx=0;exitDy=0;fontSize=12;startSize=8;endSize=8;labelBackgroundColor=none;strokeColor=#788AA3;fontColor=default;" parent="1" source="0QWitckHc7rh2wHEKvZY-158" target="0QWitckHc7rh2wHEKvZY-158" edge="1">
          <mxGeometry relative="1" as="geometry" />
        </mxCell>
        <mxCell id="0QWitckHc7rh2wHEKvZY-160" value="" style="shape=flexArrow;endArrow=classic;startArrow=classic;html=1;rounded=0;fontSize=12;startSize=8;endSize=8;entryX=0.5;entryY=0;entryDx=0;entryDy=0;exitX=0.5;exitY=1;exitDx=0;exitDy=0;labelBackgroundColor=none;strokeColor=#788AA3;fontColor=default;" parent="1" source="0QWitckHc7rh2wHEKvZY-152" target="0QWitckHc7rh2wHEKvZY-147" edge="1">
          <mxGeometry width="100" height="100" relative="1" as="geometry">
            <mxPoint x="-400" y="151" as="sourcePoint" />
            <mxPoint x="-235" y="113" as="targetPoint" />
          </mxGeometry>
        </mxCell>
        <mxCell id="0QWitckHc7rh2wHEKvZY-161" value="" style="shape=flexArrow;endArrow=classic;startArrow=classic;html=1;rounded=0;fontSize=12;startSize=8;endSize=8;labelBackgroundColor=none;strokeColor=#788AA3;fontColor=default;" parent="1" edge="1">
          <mxGeometry width="100" height="100" relative="1" as="geometry">
            <mxPoint x="-57" y="400.89" as="sourcePoint" />
            <mxPoint x="86" y="401" as="targetPoint" />
          </mxGeometry>
        </mxCell>
        <mxCell id="0QWitckHc7rh2wHEKvZY-162" value="" style="shape=flexArrow;endArrow=classic;startArrow=classic;html=1;rounded=0;fontSize=12;startSize=8;endSize=8;entryX=0;entryY=0.5;entryDx=0;entryDy=0;exitX=1;exitY=0.5;exitDx=0;exitDy=0;labelBackgroundColor=none;strokeColor=#788AA3;fontColor=default;" parent="1" source="0QWitckHc7rh2wHEKvZY-118" target="0QWitckHc7rh2wHEKvZY-152" edge="1">
          <mxGeometry width="100" height="100" relative="1" as="geometry">
            <mxPoint x="-461" y="449" as="sourcePoint" />
            <mxPoint x="-235" y="113" as="targetPoint" />
          </mxGeometry>
        </mxCell>
        <mxCell id="0QWitckHc7rh2wHEKvZY-163" value="" style="edgeStyle=none;curved=1;rounded=0;orthogonalLoop=1;jettySize=auto;html=1;exitX=0;exitY=0;exitDx=0;exitDy=0;fontSize=12;startSize=8;endSize=8;labelBackgroundColor=none;strokeColor=#788AA3;fontColor=default;" parent="1" target="0QWitckHc7rh2wHEKvZY-99" edge="1">
          <mxGeometry relative="1" as="geometry">
            <mxPoint x="233.99999999999977" y="228" as="sourcePoint" />
            <mxPoint x="233.99999999999977" y="228" as="targetPoint" />
          </mxGeometry>
        </mxCell>
        <mxCell id="0QWitckHc7rh2wHEKvZY-99" value="" style="swimlane;whiteSpace=wrap;html=1;startSize=47;labelBackgroundColor=none;fillColor=#B2C9AB;strokeColor=#788AA3;fontColor=#46495D;" parent="1" vertex="1">
          <mxGeometry x="84" y="212" width="718" height="349" as="geometry" />
        </mxCell>
        <mxCell id="0QWitckHc7rh2wHEKvZY-100" value="" style="ellipse;whiteSpace=wrap;html=1;aspect=fixed;labelBackgroundColor=none;fillColor=#B2C9AB;strokeColor=#788AA3;fontColor=#46495D;" parent="0QWitckHc7rh2wHEKvZY-99" vertex="1">
          <mxGeometry x="14" y="69" width="162" height="162" as="geometry" />
        </mxCell>
        <mxCell id="0QWitckHc7rh2wHEKvZY-101" value="" style="ellipse;whiteSpace=wrap;html=1;labelBackgroundColor=none;fillColor=#B2C9AB;strokeColor=#788AA3;fontColor=#46495D;" parent="0QWitckHc7rh2wHEKvZY-99" vertex="1">
          <mxGeometry x="254" y="80" width="188" height="142" as="geometry" />
        </mxCell>
        <mxCell id="0QWitckHc7rh2wHEKvZY-102" value="" style="shape=datastore;whiteSpace=wrap;html=1;labelBackgroundColor=none;fillColor=#B2C9AB;strokeColor=#788AA3;fontColor=#46495D;" parent="0QWitckHc7rh2wHEKvZY-99" vertex="1">
          <mxGeometry x="554" y="55" width="138" height="188" as="geometry" />
        </mxCell>
        <mxCell id="0QWitckHc7rh2wHEKvZY-103" value="" style="shape=flexArrow;endArrow=classic;startArrow=classic;html=1;rounded=0;fontSize=12;startSize=8;endSize=8;entryX=0;entryY=0.5;entryDx=0;entryDy=0;exitX=1;exitY=0.5;exitDx=0;exitDy=0;labelBackgroundColor=none;strokeColor=#788AA3;fontColor=default;" parent="0QWitckHc7rh2wHEKvZY-99" source="0QWitckHc7rh2wHEKvZY-101" target="0QWitckHc7rh2wHEKvZY-102" edge="1">
          <mxGeometry width="100" height="100" relative="1" as="geometry">
            <mxPoint x="-52" y="59" as="sourcePoint" />
            <mxPoint x="48" y="-41" as="targetPoint" />
          </mxGeometry>
        </mxCell>
        <mxCell id="0QWitckHc7rh2wHEKvZY-104" value="" style="shape=flexArrow;endArrow=classic;html=1;rounded=0;fontSize=12;startSize=8;endSize=8;entryX=1;entryY=0.5;entryDx=0;entryDy=0;exitX=0;exitY=0.5;exitDx=0;exitDy=0;labelBackgroundColor=none;strokeColor=#788AA3;fontColor=default;" parent="0QWitckHc7rh2wHEKvZY-99" source="0QWitckHc7rh2wHEKvZY-101" target="0QWitckHc7rh2wHEKvZY-100" edge="1">
          <mxGeometry width="50" height="50" relative="1" as="geometry">
            <mxPoint x="-27" y="34" as="sourcePoint" />
            <mxPoint x="23" y="-16" as="targetPoint" />
          </mxGeometry>
        </mxCell>
        <mxCell id="0QWitckHc7rh2wHEKvZY-105" value="App Server" style="text;strokeColor=none;fillColor=none;html=1;fontSize=24;fontStyle=1;verticalAlign=middle;align=center;labelBackgroundColor=none;fontColor=#46495D;" parent="0QWitckHc7rh2wHEKvZY-99" vertex="1">
          <mxGeometry x="298" y="130" width="100" height="40" as="geometry" />
        </mxCell>
        <mxCell id="0QWitckHc7rh2wHEKvZY-106" value="Database&lt;br&gt;MySQL" style="text;strokeColor=none;fillColor=none;html=1;fontSize=24;fontStyle=1;verticalAlign=middle;align=center;labelBackgroundColor=none;fontColor=#46495D;" parent="0QWitckHc7rh2wHEKvZY-99" vertex="1">
          <mxGeometry x="573" y="143" width="100" height="40" as="geometry" />
        </mxCell>
        <mxCell id="0QWitckHc7rh2wHEKvZY-107" value="Nginx&lt;br&gt;(Web Server)" style="text;strokeColor=none;fillColor=none;html=1;fontSize=24;fontStyle=1;verticalAlign=middle;align=center;labelBackgroundColor=none;fontColor=#46495D;" parent="0QWitckHc7rh2wHEKvZY-99" vertex="1">
          <mxGeometry x="45" y="129" width="100" height="40" as="geometry" />
        </mxCell>
        <mxCell id="0QWitckHc7rh2wHEKvZY-108" value="Server 1" style="text;strokeColor=none;fillColor=none;html=1;fontSize=24;fontStyle=1;verticalAlign=middle;align=center;labelBackgroundColor=none;fontColor=#46495D;" parent="0QWitckHc7rh2wHEKvZY-99" vertex="1">
          <mxGeometry x="281" y="3" width="100" height="40" as="geometry" />
        </mxCell>
        <mxCell id="0QWitckHc7rh2wHEKvZY-110" value="Codebase&amp;nbsp;&lt;br&gt;(static)" style="text;strokeColor=none;fillColor=none;html=1;fontSize=24;fontStyle=1;verticalAlign=middle;align=center;labelBackgroundColor=none;fontColor=#46495D;" parent="0QWitckHc7rh2wHEKvZY-99" vertex="1">
          <mxGeometry x="45" y="294" width="100" height="38" as="geometry" />
        </mxCell>
        <mxCell id="0QWitckHc7rh2wHEKvZY-111" style="edgeStyle=none;curved=1;rounded=0;orthogonalLoop=1;jettySize=auto;html=1;exitX=0.5;exitY=1;exitDx=0;exitDy=0;fontSize=12;startSize=8;endSize=8;labelBackgroundColor=none;strokeColor=#788AA3;fontColor=default;" parent="0QWitckHc7rh2wHEKvZY-99" source="0QWitckHc7rh2wHEKvZY-110" target="0QWitckHc7rh2wHEKvZY-110" edge="1">
          <mxGeometry relative="1" as="geometry" />
        </mxCell>
        <mxCell id="0QWitckHc7rh2wHEKvZY-112" value="" style="endArrow=classic;html=1;rounded=0;fontSize=12;startSize=8;endSize=8;exitX=0.5;exitY=1;exitDx=0;exitDy=0;labelBackgroundColor=none;strokeColor=#788AA3;fontColor=default;" parent="0QWitckHc7rh2wHEKvZY-99" edge="1">
          <mxGeometry width="50" height="50" relative="1" as="geometry">
            <mxPoint x="94.17000000000002" y="231" as="sourcePoint" />
            <mxPoint x="94.17000000000002" y="293" as="targetPoint" />
          </mxGeometry>
        </mxCell>
        <mxCell id="0QWitckHc7rh2wHEKvZY-116" value="" style="endArrow=classic;html=1;rounded=0;fontSize=12;startSize=8;endSize=8;exitX=0.5;exitY=1;exitDx=0;exitDy=0;entryX=0.5;entryY=0;entryDx=0;entryDy=0;labelBackgroundColor=none;strokeColor=#788AA3;fontColor=default;" parent="0QWitckHc7rh2wHEKvZY-99" source="0QWitckHc7rh2wHEKvZY-101" target="0QWitckHc7rh2wHEKvZY-173" edge="1">
          <mxGeometry width="50" height="50" relative="1" as="geometry">
            <mxPoint x="204" y="348" as="sourcePoint" />
            <mxPoint x="348" y="301" as="targetPoint" />
          </mxGeometry>
        </mxCell>
        <mxCell id="0QWitckHc7rh2wHEKvZY-171" style="edgeStyle=none;curved=1;rounded=0;orthogonalLoop=1;jettySize=auto;html=1;exitX=0.5;exitY=1;exitDx=0;exitDy=0;fontSize=12;startSize=8;endSize=8;labelBackgroundColor=none;strokeColor=#788AA3;fontColor=default;" parent="0QWitckHc7rh2wHEKvZY-99" edge="1">
          <mxGeometry relative="1" as="geometry">
            <mxPoint x="373" y="336" as="sourcePoint" />
            <mxPoint x="373" y="336" as="targetPoint" />
          </mxGeometry>
        </mxCell>
        <mxCell id="0QWitckHc7rh2wHEKvZY-173" value="Codebase&amp;nbsp;&lt;br&gt;(dynamic)" style="text;strokeColor=none;fillColor=none;html=1;fontSize=24;fontStyle=1;verticalAlign=middle;align=center;labelBackgroundColor=none;fontColor=#46495D;" parent="0QWitckHc7rh2wHEKvZY-99" vertex="1">
          <mxGeometry x="300" y="294" width="100" height="38" as="geometry" />
        </mxCell>
        <mxCell id="0QWitckHc7rh2wHEKvZY-164" value="DNS translates &quot;www.foobar.com&quot;&lt;br&gt;to 8.8.8.8" style="text;strokeColor=none;fillColor=none;html=1;fontSize=24;fontStyle=1;verticalAlign=middle;align=center;labelBackgroundColor=none;fontColor=#46495D;" parent="1" vertex="1">
          <mxGeometry x="-667" y="-91.00000000000003" width="100" height="40" as="geometry" />
        </mxCell>
        <mxCell id="0QWitckHc7rh2wHEKvZY-166" value="" style="shape=flexArrow;endArrow=classic;html=1;rounded=0;fontSize=12;startSize=8;endSize=8;entryX=1;entryY=0.5;entryDx=0;entryDy=0;exitX=0.73;exitY=1.044;exitDx=0;exitDy=0;exitPerimeter=0;labelBackgroundColor=none;strokeColor=#788AA3;fontColor=default;" parent="1" source="0QWitckHc7rh2wHEKvZY-133" target="0QWitckHc7rh2wHEKvZY-165" edge="1">
          <mxGeometry width="50" height="50" relative="1" as="geometry">
            <mxPoint x="-874" y="223" as="sourcePoint" />
            <mxPoint x="-824" y="173" as="targetPoint" />
          </mxGeometry>
        </mxCell>
        <mxCell id="NHQvvPsqq3CXF0zZrcX6-2" value="" style="sketch=0;outlineConnect=0;fontColor=#46495D;fillColor=#B2C9AB;strokeColor=none;dashed=0;verticalLabelPosition=bottom;verticalAlign=top;align=center;html=1;fontSize=12;fontStyle=0;aspect=fixed;pointerEvents=1;shape=mxgraph.aws4.user;labelBackgroundColor=none;" parent="1" vertex="1">
          <mxGeometry x="-677" y="-446" width="110" height="110" as="geometry" />
        </mxCell>
        <mxCell id="NHQvvPsqq3CXF0zZrcX6-3" value="User" style="text;strokeColor=none;fillColor=none;html=1;fontSize=24;fontStyle=1;verticalAlign=middle;align=center;rotation=0;labelBackgroundColor=none;fontColor=#46495D;" parent="1" vertex="1">
          <mxGeometry x="-672" y="-308" width="100" height="40" as="geometry" />
        </mxCell>
        <mxCell id="NHQvvPsqq3CXF0zZrcX6-4" value="" style="endArrow=classic;html=1;rounded=0;entryX=-0.013;entryY=0.703;entryDx=0;entryDy=0;entryPerimeter=0;labelBackgroundColor=none;strokeColor=#788AA3;fontColor=default;" parent="1" source="NHQvvPsqq3CXF0zZrcX6-2" target="0QWitckHc7rh2wHEKvZY-133" edge="1">
          <mxGeometry width="50" height="50" relative="1" as="geometry">
            <mxPoint x="352" y="-377" as="sourcePoint" />
            <mxPoint x="-33" y="-527" as="targetPoint" />
          </mxGeometry>
        </mxCell>
        <mxCell id="NHQvvPsqq3CXF0zZrcX6-6" style="edgeStyle=orthogonalEdgeStyle;rounded=0;orthogonalLoop=1;jettySize=auto;html=1;exitX=0.5;exitY=1;exitDx=0;exitDy=0;labelBackgroundColor=none;strokeColor=#788AA3;fontColor=default;" parent="1" source="NHQvvPsqq3CXF0zZrcX6-3" target="NHQvvPsqq3CXF0zZrcX6-3" edge="1">
          <mxGeometry relative="1" as="geometry" />
        </mxCell>
        <mxCell id="NHQvvPsqq3CXF0zZrcX6-7" value="www.foobar.com" style="text;strokeColor=none;fillColor=none;html=1;fontSize=24;fontStyle=1;verticalAlign=middle;align=center;rotation=0;labelBackgroundColor=none;fontColor=#46495D;" parent="1" vertex="1">
          <mxGeometry x="-484" y="-376" width="100" height="40" as="geometry" />
        </mxCell>
        <mxCell id="NHQvvPsqq3CXF0zZrcX6-8" value="With Browser" style="text;strokeColor=none;fillColor=none;html=1;fontSize=24;fontStyle=1;verticalAlign=middle;align=center;rotation=0;labelBackgroundColor=none;fontColor=#46495D;" parent="1" vertex="1">
          <mxGeometry x="-468" y="-453" width="100" height="40" as="geometry" />
        </mxCell>
      </root>
    </mxGraphModel>
  </diagram>
</mxfile>
